<svg width="16" height="17" viewBox="0 0 16 17" fill="none" xmlns="http://www.w3.org/2000/svg">
<path d="M6 7.83325H4.66667V9.16659H6V7.83325ZM8.66667 7.83325H7.33333V9.16659H8.66667V7.83325ZM11.3333 7.83325H10V9.16659H11.3333V7.83325ZM12.6667 3.16659H12V1.83325H10.6667V3.16659H5.33333V1.83325H4V3.16659H3.33333C2.59333 3.16659 2.00667 3.76659 2.00667 4.49992L2 13.8333C2 14.1869 2.14048 14.526 2.39052 14.7761C2.64057 15.0261 2.97971 15.1666 3.33333 15.1666H12.6667C13.4 15.1666 14 14.5666 14 13.8333V4.49992C14 3.76659 13.4 3.16659 12.6667 3.16659ZM12.6667 13.8333H3.33333V6.49992H12.6667V13.8333Z" fill="#666666"/>
</svg>
