<svg width="16" height="17" viewBox="0 0 16 17" fill="none" xmlns="http://www.w3.org/2000/svg">
<path d="M7.99992 1.83325C4.32392 1.83325 1.33325 4.82392 1.33325 8.49992C1.33325 12.1759 4.32392 15.1666 7.99992 15.1666C11.6759 15.1666 14.6666 12.1759 14.6666 8.49992C14.6666 4.82392 11.6759 1.83325 7.99992 1.83325ZM7.99992 13.8333C5.05925 13.8333 2.66659 11.4406 2.66659 8.49992C2.66659 5.55925 5.05925 3.16659 7.99992 3.16659C10.9406 3.16659 13.3333 5.55925 13.3333 8.49992C13.3333 11.4406 10.9406 13.8333 7.99992 13.8333Z" fill="#666666"/>
<path d="M8.66658 5.1665H7.33325V8.77584L9.52858 10.9712L10.4713 10.0285L8.66658 8.22384V5.1665Z" fill="#666666"/>
</svg>
