<svg width="15" height="15" viewBox="0 0 15 15" fill="none" xmlns="http://www.w3.org/2000/svg">
<path d="M7.04167 3.13692C7.04167 2.67669 7.41476 2.30359 7.875 2.30359C8.33524 2.30359 8.70833 2.67669 8.70833 3.13692V6.47026L12.0417 6.47025C12.5019 6.47025 12.875 6.84335 12.875 7.30359C12.875 7.76383 12.5019 8.13692 12.0417 8.13692L8.70833 8.13692V11.4703C8.70833 11.9305 8.33524 12.3036 7.875 12.3036C7.41476 12.3036 7.04167 11.9305 7.04167 11.4703V8.13692H3.70833C3.2481 8.13692 2.875 7.76383 2.875 7.30359C2.875 6.84335 3.2481 6.47026 3.70833 6.47026H7.04167V3.13692Z" fill="#666666"/>
</svg>