<svg width="14" height="14" viewBox="0 0 14 14" fill="none" xmlns="http://www.w3.org/2000/svg">
<path d="M5.37184 9.57134C5.37184 8.84616 5.46181 8.26819 5.64174 7.83745C5.82167 7.4067 6.17609 6.93506 6.70498 6.42252C7.23933 5.90453 7.57738 5.53649 7.71915 5.31839C7.93725 4.98578 8.0463 4.62592 8.0463 4.23879C8.0463 3.72625 7.91816 3.3364 7.6619 3.06923C7.41108 2.7966 7.04031 2.66029 6.54958 2.66029C6.08067 2.66029 5.70172 2.79388 5.41274 3.06105C5.1292 3.32277 4.98744 3.67991 4.98744 4.13247H3C3.01091 3.16737 3.33806 2.40402 3.98145 1.84241C4.6303 1.2808 5.48634 1 6.54958 1C7.64554 1 8.49886 1.27808 9.10954 1.83423C9.72567 2.39039 10.0337 3.16737 10.0337 4.16518C10.0337 5.05394 9.61935 5.92907 8.79056 6.79056L7.78458 7.78019C7.42471 8.18913 7.23933 8.78618 7.22842 9.57134H5.37184ZM5.2328 12.1149C5.2328 11.7932 5.33367 11.5342 5.53542 11.338C5.73716 11.1362 6.00978 11.0353 6.35329 11.0353C6.70225 11.0353 6.97761 11.1389 7.17935 11.3461C7.38109 11.5479 7.48196 11.8041 7.48196 12.1149C7.48196 12.4148 7.38382 12.6656 7.18753 12.8674C6.99124 13.0691 6.71316 13.17 6.35329 13.17C5.99343 13.17 5.71535 13.0691 5.51906 12.8674C5.32822 12.6656 5.2328 12.4148 5.2328 12.1149Z" fill="#666666"/>
</svg>
