<svg width="60" height="60" viewBox="0 0 60 60" fill="none" xmlns="http://www.w3.org/2000/svg">
<path d="M33.5528 38.2722C33.7371 38.6407 34.263 38.6407 34.4472 38.2722L35.7278 35.7111C35.7972 35.5722 35.8333 35.4191 35.8333 35.2639V26.073C38.9885 25.2535 41.3333 22.4063 41.3333 19C41.3333 14.9556 38.0443 11.6666 34 11.6666C29.9557 11.6666 26.6667 14.9556 26.6667 19C26.6667 22.4063 29.0115 25.2535 32.1667 26.073V35.2639C32.1667 35.4191 32.2028 35.5722 32.2722 35.7111L33.5528 38.2722ZM30.3333 19C30.3333 16.9778 31.9778 15.3333 34 15.3333C36.0222 15.3333 37.6667 16.9778 37.6667 19C37.6667 21.0221 36.0222 22.6666 34 22.6666C31.9778 22.6666 30.3333 21.0221 30.3333 19Z" fill="#F3CC3F" fill-opacity="0.4"/>
<path d="M42.7823 27.651C42.2563 27.4829 41.7036 27.7969 41.5564 28.3292L41.1122 29.9362C40.965 30.4686 41.2789 31.017 41.8039 31.1886C46.0047 32.5613 48.6667 34.9163 48.6667 37.3333C48.6667 40.802 42.6442 44.6666 34 44.6666C25.3558 44.6666 19.3333 40.802 19.3333 37.3333C19.3333 34.9162 21.9956 32.561 26.1983 31.1869C26.7232 31.0153 27.0369 30.4669 26.8898 29.9346L26.4455 28.3275C26.2983 27.7952 25.7454 27.4812 25.2194 27.6494C19.2995 29.5422 15.6667 33.1947 15.6667 37.3333C15.6667 43.5006 23.7205 48.3333 34 48.3333C44.2795 48.3333 52.3333 43.5006 52.3333 37.3333C52.3333 33.1947 48.7006 29.5422 42.7823 27.651Z" fill="black" fill-opacity="0.03"/>
</svg>
