<svg width="64" height="60" viewBox="0 0 64 60" fill="none" xmlns="http://www.w3.org/2000/svg">
<path d="M53.9352 38.0189L48.8854 21.3041C48.7578 18.9098 46.7479 17 44.2969 17H15.7021C13.2506 17 11.2412 18.9093 11.113 21.3041L6.06383 38.0189C6.02145 38.1598 6 38.3058 6 38.4529C6 40.9604 8.06196 43 10.5957 43H49.4043C51.9386 43 54 40.9604 54 38.4529C53.999 38.3058 53.978 38.1598 53.9352 38.0189ZM49.4032 39.9686H10.5947C9.81294 39.9686 9.16647 39.3865 9.07404 38.6373L14.1059 21.9811C14.1483 21.8402 14.1697 21.6942 14.1697 21.5471C14.1697 20.7115 14.857 20.0314 15.7016 20.0314H44.2969C45.1414 20.0314 45.8288 20.7115 45.8288 21.5471C45.8288 21.6942 45.8497 21.8402 45.8926 21.9811L50.9244 38.6373C50.8315 39.3865 50.1855 39.9686 49.4032 39.9686Z" fill="black" fill-opacity="0.03"/>
<path d="M24 26H16V28.1551H18.7146V35H21.2981V28.1551H24V26Z" fill="#F3CC3F" fill-opacity="0.4"/>
<path d="M26.3129 26L23 35H25.6694L26.2327 33.2382H28.7673L29.344 35H32L28.7004 26H26.3129ZM26.6216 31.5902L27.5075 28.8017L28.3516 31.5902H26.6216Z" fill="#F3CC3F" fill-opacity="0.4"/>
<path d="M37.5257 26L36.0061 28.8401L34.4861 26H32L34.7929 30.564L32.0944 35H34.5801L36.0061 32.2873L37.4312 35H39.9056L37.2071 30.564L40 26H37.5257Z" fill="#F3CC3F" fill-opacity="0.4"/>
<path d="M44 26H41V35H44V26Z" fill="#F3CC3F" fill-opacity="0.4"/>
</svg>
