<svg width="60" height="60" viewBox="0 0 60 60" fill="none" xmlns="http://www.w3.org/2000/svg">
<path d="M55.371 24.1406H40.371C40.1132 24.1406 39.9022 24.3516 39.9022 24.6094V27.4219C39.9022 27.6797 40.1132 27.8906 40.371 27.8906H55.371C55.6288 27.8906 55.8397 27.6797 55.8397 27.4219V24.6094C55.8397 24.3516 55.6288 24.1406 55.371 24.1406ZM47.5194 32.1094H40.371C40.1132 32.1094 39.9022 32.3203 39.9022 32.5781V35.3906C39.9022 35.6484 40.1132 35.8594 40.371 35.8594H47.5194C47.7772 35.8594 47.9882 35.6484 47.9882 35.3906V32.5781C47.9882 32.3203 47.7772 32.1094 47.5194 32.1094ZM27.9667 18.8965H25.4296C25.0663 18.8965 24.7733 19.1895 24.7733 19.5527V34.084C24.7733 34.2949 24.8729 34.4883 25.0428 34.6113L33.7675 40.9746C34.0604 41.1855 34.4706 41.127 34.6815 40.834L36.1874 38.7773V38.7715C36.3983 38.4785 36.3339 38.0684 36.0409 37.8574L28.6171 32.4902V19.5527C28.6229 19.1895 28.3241 18.8965 27.9667 18.8965Z" fill="#F3CC3F" fill-opacity="0.4"/>
<path d="M47.1562 39.4863H43.7695C43.4414 39.4863 43.1308 39.6562 42.9551 39.9375C42.2109 41.1152 41.3437 42.205 40.3476 43.2011C38.6308 44.9179 36.6328 46.2656 34.4121 47.2031C32.1094 48.1757 29.666 48.6679 27.1465 48.6679C24.6211 48.6679 22.1777 48.1757 19.8808 47.2031C17.6601 46.2656 15.6621 44.9179 13.9453 43.2011C12.2285 41.4843 10.8808 39.4863 9.94334 37.2656C8.97068 34.9687 8.4785 32.5253 8.4785 30C8.4785 27.4746 8.97068 25.0371 9.94334 22.7343C10.8808 20.5136 12.2285 18.5156 13.9453 16.7988C15.6621 15.082 17.6601 13.7343 19.8808 12.7968C22.1777 11.8242 24.6269 11.332 27.1465 11.332C29.6719 11.332 32.1152 11.8242 34.4121 12.7968C36.6328 13.7343 38.6308 15.082 40.3476 16.7988C41.3437 17.7949 42.2109 18.8847 42.9551 20.0625C43.1308 20.3437 43.4414 20.5136 43.7695 20.5136H47.1562C47.5605 20.5136 47.8183 20.0918 47.6367 19.7343C43.8164 12.1347 36.0703 7.19527 27.4219 7.09566C14.7597 6.93746 4.24217 17.3027 4.21873 29.9531C4.19529 42.6269 14.4668 52.9101 27.1406 52.9101C35.9004 52.9101 43.7754 47.9531 47.6367 40.2656C47.8183 39.9082 47.5547 39.4863 47.1562 39.4863Z" fill="black" fill-opacity="0.03"/>
</svg>
