<svg width="634" height="393" viewBox="0 0 634 393" fill="none" xmlns="http://www.w3.org/2000/svg">
<path d="M560.398 338.841C515.941 346.996 405.939 355.646 344.314 379.073C287.254 400.771 90.8687 389.502 87.7924 389.848C49.5374 389.848 2.3513 347.738 2.3513 310.767C2.3513 310.767 21.9998 247.404 25.2249 204.552C28.45 161.701 17.5342 148.751 2.40091 93.8396C-12.7324 38.928 55.293 5.81306 156.016 1.11765C203.401 -1.05706 262.793 2.79811 346.101 6.30731C439.977 10.2613 565.757 38.5326 595.081 93.8396C595.081 93.8396 599.001 113.017 608.825 141.436C616.863 164.716 630.855 195.31 632.691 217.156C636.66 265.296 604.855 330.686 560.398 338.841Z" fill="#F3F5F9"/>
<path d="M417.847 218.095C417.847 218.095 438.835 222.988 464.24 219.627C489.644 216.266 520.109 209.791 549.581 208.704C579.104 207.666 617.16 205.936 617.16 205.936L615.275 203.761L537.921 189.922C537.921 189.922 396.313 202.971 398.248 211.719C400.283 220.516 417.847 218.095 417.847 218.095Z" fill="#C4D1EA"/>
<path d="M615.721 198.769L614.531 198.275L612.248 197.583L609.519 197.336L606.294 196.694L604.558 195.804L602.722 195.31L600.935 195.409L598.604 194.964L598.207 195.458L597.363 194.568L595.775 194.173L590.367 193.382L588.63 192.245L586.05 192.048L585.306 192.492L584.314 192.443L583.569 191.405L582.776 191.158L581.833 190.417L579.054 190.021H577.218L576.424 189.329L575.482 189.033L574.589 188.39L573.497 188.094L572.604 187.451L570.669 186.71L567.841 185.573L566.6 185.771L566.005 185.622L564.764 184.683L563.871 184.387L562.78 183.497C562.78 183.497 562.432 182.163 561.39 182.212C560.348 182.261 559.952 182.212 559.952 182.212L558.711 181.965L554.791 180.136L553.352 179.84L551.417 178.456L548.341 175.292C548.341 175.292 546.505 174.304 546.108 174.205C545.761 174.106 539.857 170.449 539.857 170.449C539.857 170.449 539.162 169.213 537.872 168.966C536.582 168.719 535.837 168.719 535.292 168.521C534.696 168.323 529.883 165.111 529.883 165.111C529.883 165.111 529.09 165.012 528.196 164.715C527.303 164.419 526.162 162.887 526.162 162.887L523.632 160.761C523.632 160.761 523.632 161.107 522.937 160.712C522.242 160.267 521.25 158.933 521.25 158.933C521.25 158.933 520.754 159.081 520.456 158.883C520.208 158.685 520.01 158.488 519.414 158.389C518.819 158.29 518.819 158.29 518.819 158.29C518.819 158.29 518.074 158.043 517.38 157.944C516.685 157.845 515.891 157.351 515.891 157.351L515.197 153.1L508.498 147.911C508.498 147.911 499.418 140.2 499.369 140.052C499.319 139.904 498.178 139.113 496.689 139.162C495.151 139.212 491.43 138.223 490.041 138.174C488.651 138.125 488.949 138.421 487.163 137.927C485.426 137.433 471.93 132.984 471.93 132.984C469.201 132.589 465.53 131.551 463.148 131.254C460.766 130.958 458.186 130.216 458.186 130.216C458.186 130.216 450.496 129.426 443.797 130.612C438.339 131.6 433.973 134.368 431.393 136.148C425.637 140.052 415.466 150.382 413.729 153.249C411.943 156.115 404.054 167.681 402.863 173.167C401.672 178.653 400.829 187.846 405.344 190.96C409.859 194.123 410.157 196.199 410.157 196.199L408.817 199.115L408.222 199.412L407.676 201.982L419.336 206.826L450.793 210.384L452.083 210.78C452.083 210.78 452.431 212.015 452.629 212.213C452.828 212.411 453.423 212.954 453.621 213.004C453.82 213.004 456.152 213.597 456.648 213.251C457.144 212.905 460.221 209.248 460.369 209.198C460.518 209.149 461.014 210.533 461.61 210.582C462.205 210.632 467.514 210.928 467.514 210.928C467.514 210.928 468.06 211.669 469.003 211.768C469.946 211.917 472.178 211.472 472.178 211.472C472.178 211.472 473.468 210.582 475.007 210.236C476.545 209.89 476.545 208.803 476.545 208.803L476.396 207.518L477.487 206.628L524.773 204.354L556.23 203.564L586.795 203.465L598.058 204.058L615.076 205.145L615.721 198.769Z" fill="#DFE6F3"/>
<path d="M465.629 149.641C465.629 149.641 469.201 148.652 470.094 144.797C470.988 140.942 469.896 132.243 454.267 130.908C438.687 129.574 431.492 136.049 431.492 136.049L419.634 146.527C419.634 146.527 416.954 148.899 425.588 150.53C434.221 152.161 446.377 153.891 450.099 153.644C451.538 153.545 455.11 153.99 457.789 153.298C462.106 152.161 465.629 149.641 465.629 149.641Z" fill="#C4D1EA"/>
<path d="M466.869 173.612C466.869 173.612 466.224 169.411 465.182 167.582C464.14 165.753 462.95 162.442 462.95 162.442C462.95 162.442 468.358 159.377 474.659 157.549C480.861 155.72 487.857 155.621 489.296 156.016C495.598 157.746 500.857 160.217 500.857 160.217L498.823 176.33C498.823 176.33 492.422 172.376 482.151 172.623C471.881 172.87 466.869 173.612 466.869 173.612Z" fill="#C4D1EA"/>
<path d="M507.059 163.381L505.472 178.011L528.792 185.523L529.685 175.441L507.059 163.381Z" fill="#C4D1EA"/>
<path d="M540.204 180.927L539.261 188.538L552.707 192.097L553.154 186.561L540.204 180.927Z" fill="#C4D1EA"/>
<path d="M557.719 188.291L556.974 193.036L565.459 194.815L565.806 191.01L557.719 188.291Z" fill="#C4D1EA"/>
<path d="M569.18 191.85L568.635 195.507L575.035 196.595L575.283 193.629L569.18 191.85Z" fill="#C4D1EA"/>
<path d="M577.615 194.123L577.119 196.99L582.478 197.731L582.676 195.161L577.615 194.123Z" fill="#C4D1EA"/>
<path d="M590.962 196.842L590.764 198.868L585.306 198.176L585.505 195.903L590.962 196.842Z" fill="#C4D1EA"/>
<path d="M592.6 197.138L592.451 199.165L597.413 199.758L597.561 197.83L592.6 197.138Z" fill="#C4D1EA"/>
<path d="M599.348 198.028L599.149 199.906L604.161 200.351L604.31 198.769L599.348 198.028Z" fill="#C4D1EA"/>
<path d="M606.046 199.066L605.947 200.648L610.412 201.043L610.561 199.758L606.046 199.066Z" fill="#C4D1EA"/>
<path d="M615.573 200.252L615.473 201.636L612.794 201.389L612.893 199.956L615.573 200.252Z" fill="#C4D1EA"/>
<path d="M385.962 39.9805L380.505 38.646L358.921 58.2184L356.887 56.5874L354.555 56.5379L354.803 60.7391C354.803 60.7391 339.322 64.0012 325.628 62.6667C311.933 61.3322 295.262 59.7012 295.262 59.7012L281.865 42.254L285.487 34H281.22L275.018 41.7598L280.724 58.0701L250.209 55.846C250.209 55.846 238.103 57.8724 234.381 60.146C230.66 62.4196 227.931 64.0506 227.931 64.0506C227.931 64.0506 225.748 65.3356 226.294 66.8678C226.84 68.4 233.836 73.1943 237.755 74.0345C241.675 74.8253 293.525 79.669 293.525 79.669C293.525 79.669 290.002 83.1288 290.251 85.6989C290.499 88.269 292.037 91.3828 297.743 91.3334C303.449 91.2839 308.361 91.3334 308.361 91.3334C308.361 91.3334 311.784 89.5046 311.586 86.5885C311.388 83.6724 374.203 103.097 374.203 103.097C374.203 103.097 380.207 104.53 382.737 102.207C385.268 99.8345 389.287 94.9908 389.287 94.9908H382.737L378.272 99.4391L326.471 81.8931C326.471 81.8931 344.631 82.2391 352.62 80.0644C360.608 77.8897 367.703 74.8253 367.703 74.8253L394.596 80.6081C394.596 80.6081 399.161 80.0644 399.855 79.5207C400.6 78.977 400.6 78.977 400.6 78.977V78.4334L371.176 71.6127L371.524 68.746H370.234L385.962 39.9805Z" fill="#DFE6F3"/>
<path d="M110.269 116.228C124.847 116.228 136.665 104.456 136.665 89.9351C136.665 75.4137 124.847 63.6418 110.269 63.6418C95.6914 63.6418 83.8738 75.4137 83.8738 89.9351C83.8738 104.456 95.6914 116.228 110.269 116.228Z" fill="#5E5CE5"/>
<path d="M73.4687 101.826C73.0634 101.96 72.658 101.915 72.2976 101.736C71.9373 101.556 71.667 101.197 71.5769 100.794C71.3067 99.941 71.8472 99.0885 72.658 98.9091C73.4687 98.7296 74.2795 99.1783 74.5047 99.941C74.5948 100.345 74.5498 100.704 74.3696 101.063C74.1894 101.422 73.8741 101.736 73.4687 101.826Z" fill="#313DD3"/>
<path d="M78.9641 112.594C78.2884 113.088 77.3425 112.908 76.847 112.19C76.3515 111.472 76.5768 110.53 77.2974 110.081C78.0181 109.633 78.9641 109.857 79.3694 110.53C79.8199 111.158 79.6397 112.1 78.9641 112.594Z" fill="#313DD3"/>
<path d="M87.5222 121.119C87.297 121.478 86.8916 121.657 86.5313 121.702C86.1259 121.747 85.7205 121.657 85.4052 121.388C84.7296 120.85 84.6395 119.863 85.18 119.235C85.7205 118.606 86.6664 118.517 87.297 119.01C87.6123 119.235 87.7925 119.638 87.8375 119.997C87.8826 120.356 87.7925 120.76 87.5222 121.119Z" fill="#313DD3"/>
<path d="M98.3327 126.593C98.0624 127.401 97.2066 127.805 96.3508 127.535C95.54 127.221 95.1346 126.324 95.4499 125.561C95.7652 124.798 96.6661 124.395 97.3868 124.709C98.1525 124.933 98.5579 125.785 98.3327 126.593Z" fill="#313DD3"/>
<path d="M110.269 128.478C110.269 129.33 109.548 129.958 108.693 129.958C107.837 129.958 107.161 129.196 107.251 128.343C107.341 127.491 108.017 126.907 108.828 126.907C109.594 126.952 110.269 127.625 110.269 128.478Z" fill="#313DD3"/>
<path d="M122.251 126.593C122.386 126.997 122.341 127.401 122.161 127.76C121.98 128.119 121.62 128.388 121.215 128.477C120.359 128.747 119.503 128.208 119.323 127.401C119.143 126.593 119.593 125.785 120.359 125.561C120.764 125.471 121.125 125.516 121.485 125.696C121.8 125.875 122.116 126.189 122.251 126.593Z" fill="#313DD3"/>
<path d="M133.016 121.119C133.512 121.792 133.331 122.734 132.611 123.228C131.89 123.721 130.944 123.497 130.494 122.779C130.043 122.061 130.268 121.119 130.944 120.715C131.575 120.266 132.521 120.446 133.016 121.119Z" fill="#313DD3"/>
<path d="M141.574 112.594C141.935 112.818 142.115 113.222 142.16 113.581C142.205 113.985 142.115 114.389 141.844 114.703C141.304 115.376 140.313 115.466 139.682 114.927C139.052 114.389 138.962 113.446 139.457 112.818C139.682 112.504 140.088 112.325 140.448 112.28C140.808 112.235 141.214 112.325 141.574 112.594Z" fill="#313DD3"/>
<path d="M147.07 101.825C147.88 102.095 148.286 102.947 148.015 103.8C147.7 104.607 146.799 105.011 146.034 104.697C145.268 104.383 144.862 103.486 145.178 102.768C145.403 102.005 146.259 101.601 147.07 101.825Z" fill="#313DD3"/>
<path d="M148.961 89.9351C149.817 89.9351 150.448 90.653 150.448 91.5055C150.448 92.358 149.682 93.031 148.826 92.9413C147.97 92.8515 147.385 92.1785 147.385 91.3709C147.43 90.6081 148.106 89.9351 148.961 89.9351Z" fill="#313DD3"/>
<path d="M147.069 78.0446C147.475 77.91 147.88 77.9548 148.241 78.1343C148.601 78.3138 148.871 78.6727 148.961 79.0765C149.232 79.929 148.691 80.7816 147.88 80.961C147.069 81.1405 146.259 80.6918 146.034 79.929C145.943 79.5252 145.988 79.1663 146.169 78.8073C146.349 78.4484 146.664 78.1343 147.069 78.0446Z" fill="#313DD3"/>
<path d="M141.574 67.2763C142.25 66.7827 143.196 66.9622 143.691 67.6801C144.187 68.398 143.962 69.3403 143.241 69.789C142.52 70.2377 141.574 70.0133 141.169 69.3403C140.718 68.7121 140.899 67.7699 141.574 67.2763Z" fill="#313DD3"/>
<path d="M133.016 58.7513C133.241 58.3924 133.647 58.2129 134.007 58.168C134.412 58.1231 134.818 58.2129 135.133 58.4821C135.809 59.0205 135.899 60.0076 135.358 60.6358C134.818 61.2639 133.872 61.3537 133.241 60.8601C132.926 60.6358 132.746 60.232 132.701 59.873C132.701 59.5141 132.746 59.1103 133.016 58.7513Z" fill="#313DD3"/>
<path d="M122.251 53.2773C122.521 52.4696 123.377 52.0658 124.233 52.335C125.043 52.6491 125.449 53.5465 125.133 54.3092C124.818 55.072 123.917 55.4758 123.197 55.1617C122.386 54.9374 121.98 54.0849 122.251 53.2773Z" fill="#313DD3"/>
<path d="M110.269 51.3926C110.269 50.54 110.99 49.9119 111.846 49.9119C112.701 49.9119 113.377 50.6746 113.287 51.5272C113.197 52.3797 112.521 52.963 111.711 52.963C110.945 52.9181 110.269 52.2451 110.269 51.3926Z" fill="#313DD3"/>
<path d="M98.3326 53.2773C98.1975 52.8734 98.2425 52.4696 98.4227 52.1107C98.6029 51.7517 98.9632 51.4825 99.3686 51.3928C100.224 51.1236 101.08 51.662 101.26 52.4696C101.441 53.2773 100.99 54.0849 100.224 54.3092C99.819 54.399 99.4587 54.3541 99.0983 54.1746C98.738 53.9952 98.4227 53.6811 98.3326 53.2773Z" fill="#313DD3"/>
<path d="M87.5223 58.751C87.0268 58.0779 87.207 57.1357 87.9277 56.6421C88.6484 56.1486 89.5943 56.3729 90.0447 57.0908C90.4951 57.8087 90.2699 58.751 89.5943 59.1548C88.9637 59.6035 88.0178 59.424 87.5223 58.751Z" fill="#313DD3"/>
<path d="M78.964 67.2764C78.6037 67.0521 78.4235 66.6483 78.3784 66.2893C78.3334 65.8855 78.4235 65.4817 78.6937 65.1676C79.2343 64.4946 80.2252 64.4048 80.8558 64.9433C81.4864 65.4817 81.5765 66.4239 81.081 67.0521C80.8558 67.3662 80.4504 67.5456 80.0901 67.5905C79.7297 67.6354 79.3243 67.5457 78.964 67.2764Z" fill="#313DD3"/>
<path d="M73.4687 78.0446C72.6579 77.7754 72.2526 76.9229 72.5228 76.0704C72.8381 75.2628 73.739 74.8589 74.5047 75.173C75.2705 75.4871 75.6759 76.3845 75.3606 77.1024C75.1353 77.8651 74.2795 78.269 73.4687 78.0446Z" fill="#313DD3"/>
<path d="M71.5769 89.9351C70.7211 89.9351 70.0905 89.2172 70.0905 88.3647C70.0905 87.5122 70.8562 86.8392 71.7121 86.9289C72.5679 87.0187 73.1534 87.6917 73.1534 88.4993C73.1084 89.2621 72.4327 89.9351 71.5769 89.9351Z" fill="#313DD3"/>
<path d="M560.894 99.9186H508.945C507.01 99.9186 505.472 98.3864 505.472 96.4588V94.6795C505.472 92.7519 507.01 91.2197 508.945 91.2197H560.894C562.829 91.2197 564.367 92.7519 564.367 94.6795V96.4588C564.367 98.337 562.78 99.9186 560.894 99.9186Z" fill="#DFE6F3"/>
<path d="M539.956 92.5543H514.7C512.765 92.5543 511.227 91.0221 511.227 89.0946V87.3152C511.227 85.3877 512.765 83.8555 514.7 83.8555H539.956C541.891 83.8555 543.429 85.3877 543.429 87.3152V89.0946C543.429 91.0221 541.891 92.5543 539.956 92.5543Z" fill="#DFE6F3"/>
<path d="M190.434 129.425H165.13C163.343 129.425 161.904 127.992 161.904 126.213C161.904 124.433 163.343 123 165.13 123H190.434C192.221 123 193.66 124.433 193.66 126.213C193.66 127.992 192.221 129.425 190.434 129.425Z" fill="#DFE6F3"/>
<path d="M184.53 134.219H159.225C157.439 134.219 156 132.786 156 131.007C156 129.228 157.439 127.794 159.225 127.794H184.53C186.316 127.794 187.755 129.228 187.755 131.007C187.755 132.786 186.316 134.219 184.53 134.219Z" fill="#DFE6F3"/>
<path d="M195.595 135.851H170.29C168.504 135.851 167.065 134.417 167.065 132.638C167.065 130.859 168.504 129.425 170.29 129.425H195.595C197.381 129.425 198.82 130.859 198.82 132.638C198.82 134.417 197.381 135.851 195.595 135.851Z" fill="#DFE6F3"/>
<path d="M125.552 281.314L172.319 270.059C172.319 270.059 377.816 194.008 487.589 253.379C503.393 261.927 518.271 254.511 523.089 270.059C531.089 295.879 524.148 333.207 483.589 339.379C443.03 345.551 437.396 343.784 396.589 347.379C337.03 352.625 314.228 332.115 254.589 327.879L253.412 327.795C205.045 324.36 182.957 322.792 142.914 315.614C102.548 308.379 98.0168 297.275 111.229 286.673C115.667 283.112 125.552 281.314 125.552 281.314Z" fill="#DFE6F3"/>
<path d="M139.326 311.235L369.029 274.685" stroke="#272686" stroke-width="2" stroke-miterlimit="10" stroke-linecap="round" stroke-linejoin="round"/>
<path d="M497 293L311 326" stroke="#272686" stroke-width="2" stroke-miterlimit="10" stroke-linecap="round" stroke-linejoin="round"/>
<path d="M527 286L509 290" stroke="#272686" stroke-width="2" stroke-miterlimit="10" stroke-linecap="round" stroke-linejoin="round"/>
<path d="M450.6 265.946C450.6 265.946 456.306 248.449 453.478 235.944C450.65 223.44 448.119 216.669 448.119 216.669C448.119 216.669 447.226 204.411 443.852 202.78C440.478 201.198 430.158 196.948 429.165 194.526C428.173 192.104 418.249 177.178 417.803 176.535C417.356 175.893 399.196 160.077 373.792 155.974C353.697 152.762 326.159 152.02 326.159 152.02C326.159 152.02 295.794 151.823 283.29 152.663C270.786 153.503 251.833 155.282 241.512 156.123C231.192 156.963 217.944 162.103 198.742 173.174C179.54 184.246 179.937 188.15 172.891 189.682C169.17 190.523 151.407 193.043 137.266 197.492C124.812 201.396 113.251 207.228 108.587 208.958C101.939 211.479 105.263 213.11 100.847 218.003C96.431 222.847 89.3853 226.751 87.4999 229.964C85.7137 233.028 84.4236 232.88 83.2328 238.416C82.0916 243.951 83.4313 243.309 82.7862 245.533C82.1412 247.757 81 250.476 81 254.281C81 258.087 87.1526 271.778 86.7556 273.162C86.3587 274.496 84.8702 274.051 84.9694 276.819C85.0686 279.587 89.6334 285.963 94.9921 286.556C100.351 287.149 200.628 299.209 209.906 297.924C219.184 296.688 261.161 300.049 262.054 300.049C262.947 300.049 259.375 299.703 262.947 300.049C266.519 300.395 272.771 298.072 274.756 292.734C275.897 289.67 276.641 272.865 281.008 256.95C284.282 245.088 290.882 233.523 293.859 229.717C300.805 220.82 333.503 230.804 334.049 254.43C334.594 278.104 332.808 293.525 332.808 293.525L411.104 282.8L417.555 284.035L421.375 276.671C421.375 276.671 425.642 252.304 427.974 246.966C430.306 241.628 434.772 232.188 440.131 231.644C444.646 231.2 449.31 240.146 450.65 246.472C450.848 247.856 450.6 265.946 450.6 265.946Z" fill="#6060E2" stroke="#272686" stroke-width="2" stroke-miterlimit="10"/>
<path d="M285.076 215.383C285.076 215.383 274.16 210.589 245.978 218.25C217.746 225.911 210.055 226.455 206.681 229.47C203.307 232.485 211.692 230.903 211.692 230.903C212.536 231.496 216.356 234.758 223.501 236.043C231.638 237.526 243.15 236.933 243.15 236.933C263.344 234.264 271.382 225.466 271.382 225.466C271.382 225.466 284.332 217.706 285.076 215.383Z" fill="white" stroke="#272686" stroke-width="2" stroke-miterlimit="10"/>
<path d="M104.221 212.369L100.45 224.28C101.442 227.048 99.4577 227.048 98.4157 228.728C97.3242 230.409 97.3242 232.633 94.6448 232.287C91.9655 231.941 90.5266 228.629 90.725 226.949C90.9235 225.269 90.4769 222.501 93.3051 218.596C96.1829 214.692 104.221 212.369 104.221 212.369Z" fill="white" stroke="#272686" stroke-width="2" stroke-miterlimit="10"/>
<path d="M330.774 270.048C330.774 270.048 323.133 240.442 306.71 239.898C290.286 239.355 284.729 255.813 281.305 268.071C277.882 280.328 279.718 300.84 276.84 302.273C273.962 303.706 258.481 303.459 257.638 301.976C255.604 298.319 264.138 300.197 267.76 299.209C270.439 298.517 272.523 296.391 273.119 294.414C275.947 285.073 275.55 271.382 278.378 263.721C280.015 259.421 286.317 221.117 311.225 224.576C332.213 227.492 334.942 255.665 335.636 259.668C336.331 263.672 333.404 294.167 333.404 294.167L330.774 270.048Z" fill="#313DD3" stroke="#272686" stroke-width="2" stroke-miterlimit="10"/>
<path d="M448.665 269.653C448.665 269.653 450.352 268.713 450.997 266.143C452.138 261.744 451.642 254.331 450.749 249.289C449.31 241.332 443.852 229.865 436.36 229.865C424.948 229.865 424.501 240.442 421.276 252.65C418.051 264.858 418.944 271.679 418.646 275.979C418.349 280.328 414.082 282.454 414.082 284.332C414.082 286.21 417.704 286.408 419.688 284.184C421.276 282.404 421.425 279.884 423.062 272.816C424.055 268.664 423.807 262.931 424.501 259.075C426.387 248.498 430.356 238.959 433.184 238.07C436.012 237.18 441.024 240.442 442.711 243.506C444.398 246.571 447.97 257.642 448.069 261.398C448.169 265.155 448.665 269.653 448.665 269.653Z" fill="#313DD3" stroke="#272686" stroke-width="2" stroke-miterlimit="10"/>
<path d="M383.319 207.673C383.567 207.327 386.445 207.031 387.586 209.205C388.727 211.331 387.586 212.121 387.586 212.121C387.586 212.121 384.658 212.319 381.533 211.677C378.407 211.034 377.762 210.886 377.514 210.54C377.265 210.194 377.265 208.118 378.059 207.871C378.853 207.624 380.391 208.464 381.731 208.76C383.021 209.008 383.021 208.019 383.319 207.673Z" fill="#313DD3" stroke="#272686" stroke-width="2" stroke-miterlimit="10"/>
<path d="M417.456 210.144C416.414 209.996 416.017 211.034 416.017 211.578C416.017 212.121 416.314 213.011 417.158 213.06C418.001 213.11 422.467 212.665 423.955 212.665C425.444 212.665 425.791 211.331 425.791 210.639C425.791 209.947 424.997 209.452 424.352 209.255C423.707 209.057 421.177 208.662 420.879 209.008C420.582 209.354 421.078 209.996 420.879 210.293C420.83 210.392 420.185 210.441 419.242 210.342C418.646 210.342 418.498 210.243 417.456 210.144Z" fill="#313DD3" stroke="#272686" stroke-width="2" stroke-miterlimit="10"/>
<path d="M444.1 208.563L445.688 207.673C445.688 207.673 448.516 207.723 448.466 208.909C448.417 210.095 448.764 214.395 448.913 215.186C449.062 215.927 448.863 217.657 448.615 217.805C448.367 218.003 447.921 219.041 447.772 218.547C447.623 218.052 446.531 215.038 445.539 214.346C444.547 213.703 441.768 210.046 441.768 209.452C441.768 208.909 444.1 208.563 444.1 208.563Z" fill="white" stroke="#272686" stroke-width="2" stroke-miterlimit="10"/>
<path d="M331.171 199.815L376.174 196.948C376.819 196.948 377.315 196.305 377.117 195.663C376.472 193.192 373.991 184.147 371.163 176.239C368.831 169.813 366.052 164.179 365.754 163.586C365.605 163.24 365.258 163.042 364.861 163.042C362.083 162.943 352.506 161.658 347.495 166.502C342.484 171.346 332.362 190.72 332.014 192.5C331.766 193.686 330.774 196.651 330.129 198.431C329.931 199.123 330.427 199.815 331.171 199.815Z" fill="#272686" stroke="#272686" stroke-width="2" stroke-miterlimit="10"/>
<path d="M373.494 164.327C374.139 164.08 395.277 170.06 396.517 171.049C397.112 171.543 399.99 176.832 402.521 182.367C405.15 188.051 407.433 194.279 407.383 194.625C407.284 195.366 387.834 196.602 387.04 196.157C386.246 195.712 383.865 187.557 380.391 179.352C375.678 168.232 372.8 164.525 373.494 164.327Z" fill="#272686" stroke="#272686" stroke-width="2" stroke-miterlimit="10"/>
<path d="M404.059 174.212C403.463 173.619 399.296 171.494 399.097 171.988C398.899 172.482 402.173 178.66 403.761 181.675C405.349 184.69 408.425 193.686 409.418 194.477C410.46 195.267 415.917 194.872 416.463 194.674C416.761 194.526 412.99 187.606 409.368 181.873C406.639 177.573 404.654 174.756 404.059 174.212Z" fill="#272686" stroke="#272686" stroke-width="2" stroke-miterlimit="10"/>
<path d="M336.48 161.312C335.14 160.225 307.255 159.236 277.733 159.187C248.211 159.137 233.177 161.164 226.478 162.498C223.799 163.042 215.165 167.688 205.837 173.174C191.696 181.478 175.918 191.61 176.762 192.055C178.2 192.747 197.254 192.055 223.451 193.537C249.997 194.575 306.313 197.64 306.313 197.64H308.198C308.198 197.64 316.881 190.424 319.412 186.371C321.892 182.318 337.82 162.4 336.48 161.312Z" fill="#272684" stroke="#272686" stroke-width="2" stroke-miterlimit="10"/>
<path d="M333.602 284.381C333.453 289.62 335.636 326.245 308.992 327.134C282.347 328.024 280.958 327.134 280.958 327.134C280.958 327.134 273.218 325.602 267.313 320.561C262.004 316.063 258.134 306.326 257.638 301.977C257.638 301.977 273.863 303.904 276.344 301.384C278.825 298.863 279.271 279.488 280.015 274.644C280.71 269.801 276.939 236.538 306.71 237.971C326.259 238.861 333.949 270.592 333.602 284.381Z" fill="#272686" stroke="#272686" stroke-width="2" stroke-miterlimit="10"/>
<path d="M448.367 258.631C449.608 267.725 450.104 285.963 445.688 295.205C441.322 304.448 441.322 306.623 432.639 307.117C423.956 307.611 414.429 305.09 414.429 305.09C414.429 305.09 407.631 298.22 405.994 291.103C404.307 283.986 404.456 284.727 404.456 284.727L410.807 283.739L417.257 284.974C417.257 284.974 420.333 285.271 421.971 277.017C423.608 268.763 423.31 237.823 434.425 237.823C442.314 237.823 447.226 250.179 448.367 258.631Z" fill="#272686" stroke="#272686" stroke-width="2" stroke-miterlimit="10"/>
<path d="M332.759 194.328C332.759 194.328 333.751 196.799 335.984 196.75C338.217 196.701 341.888 197.294 341.987 196.305C342.087 195.317 341.888 189.83 344.419 187.606C346.9 185.382 350.67 182.713 355.483 182.911C360.296 183.109 370.071 184.888 371.659 185.481C373.246 186.074 374.784 189.287 374.784 191.807C374.784 194.328 372.552 198.48 372.552 198.48C370.865 199.468 359.8 200.012 356.228 200.259C352.655 200.506 352.903 200.902 348.636 201.001C344.369 201.149 341.69 200.309 341.839 201.841C341.987 203.373 342.533 204.411 342.98 204.856C343.426 205.301 344.319 206.19 342.98 205.498C341.64 204.806 330.476 202.385 329.682 201.001C328.888 199.617 331.121 195.07 331.766 194.328C332.411 193.587 332.759 194.328 332.759 194.328Z" fill="#5F5DE6" stroke="#272686" stroke-width="2" stroke-miterlimit="10"/>
<path d="M154.285 294.167C154.285 294.167 148.777 300.543 139.846 299.258C130.915 297.973 126.995 291.153 126.995 291.153L98.0188 287.792C98.0188 287.792 101.591 298.072 111.763 304.942C117.568 308.896 126.598 311.12 135.678 311.12C157.113 311.12 166.144 295.453 166.144 295.453" fill="#272686"/>
<path d="M154.285 294.167C154.285 294.167 148.777 300.543 139.846 299.258C130.915 297.973 126.995 291.153 126.995 291.153L98.0188 287.792C98.0188 287.792 101.591 298.072 111.763 304.942C117.568 308.896 126.598 311.12 135.678 311.12C157.113 311.12 166.144 295.453 166.144 295.453" stroke="#272686" stroke-width="2" stroke-miterlimit="10"/>
<path d="M304.08 317.941C316.466 317.941 326.507 302.805 326.507 284.134C326.507 265.463 316.466 250.327 304.08 250.327C291.694 250.327 281.653 265.463 281.653 284.134C281.653 302.805 291.694 317.941 304.08 317.941Z" fill="white" stroke="#272686" stroke-width="2" stroke-miterlimit="10"/>
<path d="M436.459 297.281C441.748 297.281 446.035 286.04 446.035 272.173C446.035 258.306 441.748 247.065 436.459 247.065C431.17 247.065 426.883 258.306 426.883 272.173C426.883 286.04 431.17 297.281 436.459 297.281Z" fill="white" stroke="#272686" stroke-width="2" stroke-miterlimit="10"/>
<path d="M303.385 287.446C304.947 287.446 306.213 285.963 306.213 284.134C306.213 282.305 304.947 280.822 303.385 280.822C301.823 280.822 300.557 282.305 300.557 284.134C300.557 285.963 301.823 287.446 303.385 287.446Z" fill="#313DD3" stroke="#272686" stroke-width="2" stroke-miterlimit="10"/>
<path d="M436.36 274.892C437.276 274.892 438.019 273.807 438.019 272.47C438.019 271.132 437.276 270.048 436.36 270.048C435.443 270.048 434.7 271.132 434.7 272.47C434.7 273.807 435.443 274.892 436.36 274.892Z" fill="#313DD3" stroke="#272686" stroke-width="1.4" stroke-miterlimit="10"/>
<path d="M304.08 265.649L303.385 278.203" stroke="#272686" stroke-width="2" stroke-miterlimit="10"/>
<path d="M297.282 281.317L287.805 277.066" stroke="#272686" stroke-width="2" stroke-miterlimit="10"/>
<path d="M299.713 290.757L295.049 303.311" stroke="#272686" stroke-width="2" stroke-miterlimit="10"/>
<path d="M306.213 289.67L312.118 302.273" stroke="#272686" stroke-width="2" stroke-miterlimit="10"/>
<path d="M308.198 282.206L319.709 275.979" stroke="#272686" stroke-width="2" stroke-miterlimit="10"/>
<path d="M439.585 258.087L437.501 266.984" stroke="#272686" stroke-width="2" stroke-miterlimit="10"/>
<path d="M431.348 260.311L434.226 268.466" stroke="#272686" stroke-width="2" stroke-miterlimit="10"/>
<path d="M433.73 275.583L431.348 283.146" stroke="#272686" stroke-width="2" stroke-miterlimit="10"/>
<path d="M436.906 277.807L438.543 287.594" stroke="#272686" stroke-width="2" stroke-miterlimit="10"/>
<path d="M442.94 274.638L438.99 273.458" stroke="#272686" stroke-width="2" stroke-miterlimit="10"/>
<path d="M193.88 256.95C193.88 256.95 159.892 260.954 136.323 258.68C112.755 256.406 98.6142 248.449 98.6142 248.449" stroke="#272686" stroke-width="2" stroke-miterlimit="10"/>
<path d="M191.647 231.793C191.647 231.793 167.334 225.862 143.617 226.109C119.95 226.356 104.171 228.234 104.171 228.234" stroke="#272686" stroke-width="2" stroke-miterlimit="10"/>
<path d="M334.049 235.154L336.083 234.511C336.877 234.264 337.323 233.424 337.075 232.633C336.827 231.842 335.984 231.397 335.19 231.644L333.156 232.287C332.362 232.534 331.915 233.374 332.163 234.165C332.461 234.956 333.255 235.401 334.049 235.154Z" fill="#313DD3" stroke="#272686" stroke-width="2" stroke-miterlimit="10"/>
<path d="M388.727 199.814C388.727 199.814 392.101 203.719 395.624 208.909C397.956 212.319 394.88 220.919 395.277 223.489C396.219 229.914 396.418 242.221 394.532 249.932C392.647 257.642 391.555 260.706 392.647 265.797C393.739 270.888 393.639 278.746 392.647 279.834C391.655 280.921 363.819 284.776 363.819 284.776" stroke="#272686" stroke-width="2" stroke-miterlimit="10"/>
<path d="M226.849 162.231L180.083 191.372H191.23L236.337 160.945L226.849 162.231Z" fill="white"/>
<path d="M239.43 160.697L194.564 191.372H197.342L242.207 160.36L239.43 160.697Z" fill="white"/>
<path d="M399.509 235.06C399.478 234.509 399.9 234.037 400.451 234.005L403.246 233.847L403.642 240.836C403.674 241.387 403.252 241.86 402.701 241.891L400.903 241.993C400.352 242.024 399.88 241.602 399.849 241.051L399.509 235.06Z" fill="#FDFDFD"/>
<path d="M402.85 226.858C402.819 226.307 403.241 225.835 403.792 225.803L405.589 225.701C406.141 225.67 406.613 226.092 406.644 226.643L407.04 233.632L403.246 233.847L402.85 226.858Z" fill="#FDFDFD"/>
<path d="M407.04 233.632L410.834 233.417L411.23 240.406C411.262 240.957 410.84 241.43 410.288 241.461L408.491 241.563C407.94 241.594 407.468 241.172 407.436 240.621L407.04 233.632Z" fill="#FDFDFD"/>
<path d="M414.628 233.202L417.424 233.044C417.975 233.013 418.447 233.434 418.479 233.986L418.818 239.976C418.849 240.527 418.428 241 417.876 241.031L416.079 241.133C415.528 241.164 415.055 240.742 415.024 240.191L414.628 233.202Z" fill="#FDFDFD"/>
<path d="M410.438 226.428C410.407 225.877 410.829 225.405 411.38 225.373L413.177 225.272C413.729 225.24 414.201 225.662 414.232 226.213L414.628 233.202L410.834 233.417L410.438 226.428Z" fill="#FDFDFD"/>
</svg>
