<svg width="20" height="20" viewBox="0 0 20 20" fill="none" xmlns="http://www.w3.org/2000/svg">
<path d="M17.9168 7.07333V14.0625C17.9168 15.2708 16.9377 16.25 15.7293 16.25H4.271C3.69083 16.25 3.13444 16.0195 2.7242 15.6093C2.31396 15.1991 2.0835 14.6427 2.0835 14.0625V7.07333L9.74933 11.29C9.90558 11.3758 10.0952 11.3758 10.251 11.29L17.9168 7.07292V7.07333ZM15.7293 3.75C16.3004 3.75005 16.8487 3.9734 17.2573 4.37232C17.6659 4.77125 17.9023 5.31413 17.916 5.885L10.0002 10.2392L2.08433 5.88458L2.08516 5.84708C2.1085 5.28302 2.349 4.74983 2.75637 4.35899C3.16375 3.96815 3.70645 3.74995 4.271 3.75H15.7293Z" fill="#F3CC3F"/>
</svg>
