<svg width="20" height="21" viewBox="0 0 20 21" fill="none" xmlns="http://www.w3.org/2000/svg">
<path d="M17.0725 14.7835L13.685 11.7035C13.5249 11.5579 13.3144 11.4803 13.0982 11.487C12.8819 11.4937 12.6767 11.5841 12.5258 11.7393L10.5317 13.7901C10.0517 13.6985 9.08666 13.3976 8.09332 12.4068C7.09999 11.4126 6.79916 10.4451 6.70999 9.96845L8.75916 7.97345C8.9145 7.82272 9.0051 7.61747 9.01179 7.40112C9.01848 7.18478 8.94073 6.97432 8.79499 6.81428L5.71582 3.42762C5.57003 3.26708 5.36739 3.1697 5.15095 3.15617C4.93451 3.14263 4.72132 3.214 4.55666 3.35512L2.74832 4.90595C2.60425 5.05055 2.51826 5.24299 2.50666 5.44678C2.49416 5.65512 2.25582 10.5901 6.08249 14.4185C9.42082 17.756 13.6025 18.0001 14.7542 18.0001C14.9225 18.0001 15.0258 17.9951 15.0533 17.9935C15.2571 17.982 15.4494 17.8957 15.5933 17.751L17.1433 15.9418C17.285 15.7776 17.3569 15.5646 17.3437 15.3482C17.3304 15.1318 17.2331 14.9291 17.0725 14.7835Z" fill="#F3CC3F"/>
</svg>
