<svg width="32" height="33" viewBox="0 0 32 33" fill="none" xmlns="http://www.w3.org/2000/svg">
<path d="M0 16.5C0 7.66344 7.16344 0.5 16 0.5C24.8366 0.5 32 7.66344 32 16.5C32 25.3366 24.8366 32.5 16 32.5C7.16344 32.5 0 25.3366 0 16.5Z" fill="#FAFAFA"/>
<path d="M16.0001 13.8963C14.5665 13.8963 13.3965 15.0663 13.3965 16.4999C13.3965 17.9334 14.5665 19.1034 16.0001 19.1034C17.4337 19.1034 18.6036 17.9334 18.6036 16.4999C18.6036 15.0663 17.4337 13.8963 16.0001 13.8963ZM23.8086 16.4999C23.8086 15.4217 23.8184 14.3534 23.7579 13.2772C23.6973 12.0272 23.4122 10.9178 22.4981 10.0038C21.5821 9.08774 20.4747 8.80454 19.2247 8.74399C18.1465 8.68344 17.0782 8.69321 16.002 8.69321C14.9239 8.69321 13.8555 8.68344 12.7794 8.74399C11.5294 8.80454 10.42 9.08969 9.50592 10.0038C8.58991 10.9198 8.3067 12.0272 8.24616 13.2772C8.18561 14.3553 8.19537 15.4237 8.19537 16.4999C8.19537 17.576 8.18561 18.6463 8.24616 19.7225C8.3067 20.9725 8.59186 22.0819 9.50592 22.9959C10.4219 23.912 11.5294 24.1952 12.7794 24.2557C13.8575 24.3163 14.9258 24.3065 16.002 24.3065C17.0801 24.3065 18.1485 24.3163 19.2247 24.2557C20.4747 24.1952 21.584 23.91 22.4981 22.9959C23.4141 22.0799 23.6973 20.9725 23.7579 19.7225C23.8204 18.6463 23.8086 17.578 23.8086 16.4999ZM16.0001 20.5057C13.7833 20.5057 11.9942 18.7167 11.9942 16.4999C11.9942 14.2831 13.7833 12.494 16.0001 12.494C18.2169 12.494 20.0059 14.2831 20.0059 16.4999C20.0059 18.7167 18.2169 20.5057 16.0001 20.5057ZM20.17 13.2655C19.6524 13.2655 19.2344 12.8475 19.2344 12.3299C19.2344 11.8124 19.6524 11.3944 20.17 11.3944C20.6876 11.3944 21.1055 11.8124 21.1055 12.3299C21.1057 12.4528 21.0816 12.5746 21.0346 12.6881C20.9877 12.8017 20.9188 12.9049 20.8319 12.9918C20.7449 13.0787 20.6418 13.1476 20.5282 13.1946C20.4146 13.2415 20.2929 13.2656 20.17 13.2655Z" fill="black" fill-opacity="0.5"/>
</svg>