<svg width="32" height="33" viewBox="0 0 32 33" fill="none" xmlns="http://www.w3.org/2000/svg">
<path d="M0 16.5C0 7.66344 7.16344 0.5 16 0.5C24.8366 0.5 32 7.66344 32 16.5C32 25.3366 24.8366 32.5 16 32.5C7.16344 32.5 0 25.3366 0 16.5Z" fill="#FAFAFA"/>
<path d="M23.2214 9.59735L8.44635 15.2948C7.43802 15.6998 7.44385 16.2623 8.26135 16.5132L12.0547 17.6965L20.8314 12.159C21.2464 11.9065 21.6255 12.0423 21.3138 12.319L14.203 18.7365H14.2013L14.203 18.7373L13.9413 22.6473C14.3247 22.6473 14.4938 22.4715 14.7088 22.264L16.5513 20.4723L20.3838 23.3032C21.0905 23.6923 21.598 23.4923 21.7738 22.649L24.2897 10.7923C24.5472 9.75985 23.8955 9.29235 23.2214 9.59735Z" fill="black" fill-opacity="0.5"/>
</svg>