<svg width="32" height="33" viewBox="0 0 32 33" fill="none" xmlns="http://www.w3.org/2000/svg">
<path d="M0 16.5C0 7.66344 7.16344 0.5 16 0.5C24.8366 0.5 32 7.66344 32 16.5C32 25.3366 24.8366 32.5 16 32.5C7.16344 32.5 0 25.3366 0 16.5Z" fill="#FAFAFA"/>
<g clip-path="url(#clip0)">
<path fill-rule="evenodd" clip-rule="evenodd" d="M25.5417 11.4565C25.68 11.0015 25.5417 10.6665 24.8792 10.6665H22.6917C22.135 10.6665 21.8783 10.9557 21.7392 11.2748C21.7392 11.2748 20.6267 13.9382 19.0508 15.6682C18.5408 16.1698 18.3092 16.329 18.0308 16.329C17.8917 16.329 17.6825 16.1698 17.6825 15.714V11.4565C17.6825 10.9098 17.5292 10.6665 17.0658 10.6665H13.6258C13.2783 10.6665 13.0692 10.9198 13.0692 11.1607C13.0692 11.6782 13.8575 11.7982 13.9383 13.2548V16.4198C13.9383 17.114 13.8108 17.2398 13.5325 17.2398C12.7908 17.2398 10.9867 14.564 9.91583 11.5023C9.70833 10.9065 9.49833 10.6665 8.93917 10.6665H6.75C6.125 10.6665 6 10.9557 6 11.2748C6 11.8432 6.74167 14.6665 9.45417 18.4007C11.2625 20.9507 13.8083 22.3332 16.1275 22.3332C17.5183 22.3332 17.69 22.0265 17.69 21.4973V19.5698C17.69 18.9557 17.8217 18.8332 18.2625 18.8332C18.5875 18.8332 19.1433 18.9932 20.4417 20.2223C21.925 21.6798 22.1692 22.3332 23.0042 22.3332H25.1917C25.8167 22.3332 26.13 22.0265 25.95 21.4198C25.7517 20.8165 25.0433 19.9407 24.1042 18.9015C23.5942 18.3098 22.8292 17.6723 22.5967 17.3532C22.2725 16.944 22.365 16.7615 22.5967 16.3973C22.5967 16.3973 25.2633 12.709 25.5408 11.4565H25.5417Z" fill="black" fill-opacity="0.5"/>
</g>
<defs>
<clipPath id="clip0">
<rect width="20" height="20" fill="white" transform="translate(6 6.5)"/>
</clipPath>
</defs>
</svg>