<svg width="42" height="42" viewBox="0 0 42 42" fill="none" xmlns="http://www.w3.org/2000/svg">
<path d="M36.4481 8.14619C35.9766 7.46506 35.0422 7.29516 34.361 7.76671C33.6799 8.23826 33.51 9.17269 33.9816 9.85381L36.4481 8.14619ZM39.7148 15.5L40.9148 16.4C41.3022 15.8835 41.3156 15.177 40.9481 14.6462L39.7148 15.5ZM34.0148 20.6C33.5178 21.2627 33.6521 22.2029 34.3148 22.7C34.9776 23.1971 35.9178 23.0627 36.4148 22.4L34.0148 20.6ZM33.9816 9.85381L38.4816 16.3538L40.9481 14.6462L36.4481 8.14619L33.9816 9.85381ZM38.5148 14.6L34.0148 20.6L36.4148 22.4L40.9148 16.4L38.5148 14.6Z" fill="#F3CC3F"/>
<path d="M2.21471 17C3.04922 27.1136 15.2147 39.5 15.2147 39.5C15.2147 39.5 27.3802 27.1136 28.2147 17C28.3753 15.054 28.6046 13.9133 28.2147 12C26.9359 5.72389 21.6198 2 15.2147 2C8.80963 2 3.49354 5.72389 2.21471 12C1.82485 13.9133 2.05414 15.054 2.21471 17Z" stroke="#F3CC3F" stroke-width="3" stroke-linejoin="round"/>
<circle cx="15.2148" cy="15.3086" r="3" fill="#F3CC3F"/>
</svg>